<svg xmlns="http://www.w3.org/2000/svg" viewBox="0 0 136.17 182.21"><defs><style>.cls-1{fill:#fff;}</style></defs><title>big-logo</title><g id="Layer_2" data-name="Layer 2"><g id="Layer_2-2" data-name="Layer 2"><path class="cls-1" d="M35.58,31.58a.94.94,0,0,1-.94-.93V1.87H28.72v27a.93.93,0,0,1-.93.93H9.2a.94.94,0,0,1-.94-.93v-27H2.34V30.65a.94.94,0,0,1-1.87,0V.93A.94.94,0,0,1,1.41,0H9.2a.93.93,0,0,1,.93.93V28H26.85V.93A.94.94,0,0,1,27.79,0h7.79a.93.93,0,0,1,.93.93V30.65a.93.93,0,0,1-.93.93Z"/><path class="cls-1" d="M35.58,66.66H27.79a.93.93,0,0,1-.94-.93V37.61H10.13V65.73a.93.93,0,0,1-.93.93H1.41a.93.93,0,0,1-.94-.93V34.55a.94.94,0,0,1,1.87,0V64.8H8.26V36.68a.94.94,0,0,1,.94-.94H27.79a.94.94,0,0,1,.93.94V64.8h5.92V34.55a.94.94,0,0,1,1.87,0V65.73a.93.93,0,0,1-.93.93Z"/><path class="cls-1" d="M63.79,67.18a18.14,18.14,0,0,1-12.26-4.52C47.88,59.36,46,54.63,46,49V19.71a.94.94,0,0,1,1.87,0V49c0,5.09,1.72,9.34,5,12.27a16.24,16.24,0,0,0,11,4A16.82,16.82,0,0,0,75,61.21,15.81,15.81,0,0,0,80.12,49V19.71a.94.94,0,0,1,1.87,0V49c0,11.94-9.15,18.18-18.2,18.18Z"/><path class="cls-1" d="M62.06,59.48h-.19c-4.94-1-8.13-5.09-8.13-10.47V2.12H47.82V15.83a.94.94,0,0,1-1.87,0V1.18a.94.94,0,0,1,.94-.93h7.79a.93.93,0,0,1,.93.93V49c0,5.4,3.42,8,6.63,8.63a.94.94,0,0,1,.73,1.1.93.93,0,0,1-.91.75Z"/><path class="cls-1" d="M65.89,59.49a.94.94,0,0,1-.92-.76.93.93,0,0,1,.74-1.09c3.2-.63,6.62-3.23,6.62-8.64V1.18a.94.94,0,0,1,.94-.93h7.79a.93.93,0,0,1,.93.93V15.83a.94.94,0,0,1-1.87,0V2.12H74.2V49c0,5.39-3.19,9.5-8.13,10.47l-.18,0Z"/><path class="cls-1" d="M18,111.08a1,1,0,0,1-.46-.12C2.23,102.33.59,97.4,0,91.86v0A17.9,17.9,0,0,1,4.94,78.41,18.7,18.7,0,0,1,37.1,91.34a.94.94,0,0,1-.93.94H27.93a.94.94,0,0,1-.93-.91c-.17-5.05-3.55-8.45-8.42-8.45a8.83,8.83,0,0,0-6.5,2.64,7.36,7.36,0,0,0-1.93,5.71c.19,3.79,3.27,6,8.32,9.07a.94.94,0,0,1-1,1.59c-5.4-3.34-9-5.88-9.2-10.54a9.33,9.33,0,0,1,2.43-7.1,10.69,10.69,0,0,1,7.87-3.24,10,10,0,0,1,10.23,9.36h6.4A16.84,16.84,0,0,0,6.29,79.7a16.07,16.07,0,0,0-4.4,12c.51,5,2.06,9.47,16.53,17.64a.93.93,0,0,1-.46,1.75Z"/><path class="cls-1" d="M19.6,140.81A19,19,0,0,1,.77,121.66a.92.92,0,0,1,.93-.93h8.38a.92.92,0,0,1,.93.9,8.65,8.65,0,0,0,8.59,8.72,9,9,0,0,0,6.6-2.7,7.63,7.63,0,0,0,2-5.92c-.19-3.81-2.94-5.86-7.44-8.78a.94.94,0,1,1,1-1.57c4.85,3.15,8.05,5.56,8.29,10.23a9.61,9.61,0,0,1-2.5,7.32,10.81,10.81,0,0,1-8,3.28A10.4,10.4,0,0,1,9.21,122.6H2.66A17.12,17.12,0,0,0,19.6,138.94a17,17,0,0,0,12.45-5.22A16.65,16.65,0,0,0,36.6,121.3c-.51-5-2.05-9.76-15.8-17.45a.94.94,0,1,1,.92-1.64c13.16,7.38,16.1,12.52,16.74,18.92v.05A18.59,18.59,0,0,1,19.6,140.81Z"/><path class="cls-1" d="M69.51,110.06V75.89a.94.94,0,0,1,.94-.94h30.9a.94.94,0,0,1,0,1.87h-30v32.3H77.3V83.68a.94.94,0,0,1,.94-.94H99.5a.94.94,0,0,1,.93.94v13h.92a.94.94,0,0,1,0,1.87H99.5a.94.94,0,0,1-.94-.94v-13H79.17v25.45a.93.93,0,0,1-.93.93H70.45a.94.94,0,0,1-.94-.93Z"/><path class="cls-1" d="M104.32,97.66a.94.94,0,0,1,.94-.93h1.09v-13a.94.94,0,0,1,.94-.94h20.16a.93.93,0,0,1,.93.94v25.44h5.93V76.82h-29a.94.94,0,1,1,0-1.87h30a.93.93,0,0,1,.93.94v34.17a.93.93,0,0,1-.93.93h-7.79a.94.94,0,0,1-.94-.93V84.61H108.22v13a.93.93,0,0,1-.93.94h-2a.94.94,0,0,1-.94-.94Z"/><path class="cls-1" d="M69.51,130.86V128.8a.93.93,0,0,1,.94-.93h56.06V115.71a.94.94,0,0,1,.94-.94h7.79a.93.93,0,0,1,.93.94v15.15a.93.93,0,0,1-1.86,0V116.64h-5.93V128.8a.93.93,0,0,1-.93.94H71.38v1.12a.94.94,0,0,1-1.87,0Z"/><path class="cls-1" d="M69.51,136.78v-2a.94.94,0,1,1,1.87,0v1h56.07a.93.93,0,0,1,.93.93v12.16h5.93V134.8a.93.93,0,1,1,1.86,0v15.08a.93.93,0,0,1-.93.93h-7.79a.94.94,0,0,1-.94-.93V137.72H70.45a.94.94,0,0,1-.94-.94Z"/><path class="cls-1" d="M21,163.29a.9.9,0,0,1-.28.66l-18,18a1,1,0,0,1-1,.2,1,1,0,0,1-.58-.86V165.23a.94.94,0,1,1,1.87,0V179l15.73-15.73L3.05,147.56v13.73a.94.94,0,0,1-1.87,0v-16a1,1,0,0,1,.58-.86,1,1,0,0,1,1,.2l18,18a.9.9,0,0,1,.28.66Z"/></g></g></svg>
