<svg xmlns="http://www.w3.org/2000/svg" viewBox="0 0 31.9 31.96"><defs><style>.cls-1{fill:#fff;}</style></defs><title>favicon_1</title><g id="Layer_2" data-name="Layer 2"><g id="Layer_1-2" data-name="Layer 1"><rect width="31.9" height="31.96"/><path class="cls-1" d="M21.55,15a.32.32,0,0,1-.32-.33v-10H19.17v9.37a.32.32,0,0,1-.32.33H12.4a.33.33,0,0,1-.33-.33V4.72H10v10a.33.33,0,1,1-.65,0V4.39a.32.32,0,0,1,.33-.32h2.7a.32.32,0,0,1,.32.32v9.38h5.8V4.39a.32.32,0,0,1,.33-.32h2.7a.32.32,0,0,1,.33.32V14.7a.33.33,0,0,1-.33.33Z"/><path class="cls-1" d="M21.55,27.2h-2.7a.32.32,0,0,1-.33-.32V17.12h-5.8v9.76a.32.32,0,0,1-.32.32H9.7a.32.32,0,0,1-.33-.32V16.06a.33.33,0,0,1,.65,0V26.55h2.05V16.8a.33.33,0,0,1,.33-.33h6.45a.32.32,0,0,1,.32.33v9.75h2.06V16.06a.32.32,0,0,1,.32-.32.32.32,0,0,1,.33.32V26.88a.32.32,0,0,1-.33.32Z"/></g></g></svg>
