<svg xmlns="http://www.w3.org/2000/svg" viewBox="0 0 236.39 172.5"><title>logo-black</title><g id="Layer_2" data-name="Layer 2"><g id="Layer_3" data-name="Layer 3"><path d="M67,60.59a1.78,1.78,0,0,1-1.78-1.78v-55H54v51.6a1.79,1.79,0,0,1-1.79,1.78H16.66a1.78,1.78,0,0,1-1.78-1.78V3.85H3.57v55a1.79,1.79,0,0,1-3.57,0V2.06A1.78,1.78,0,0,1,1.78.28H16.66a1.79,1.79,0,0,1,1.79,1.78v51.6H50.38V2.06A1.78,1.78,0,0,1,52.16.28H67a1.79,1.79,0,0,1,1.79,1.78V58.81A1.79,1.79,0,0,1,67,60.59Z"/><path d="M67,127.6H52.16a1.79,1.79,0,0,1-1.78-1.79V72.11H18.45v53.7a1.79,1.79,0,0,1-1.79,1.79H1.78A1.79,1.79,0,0,1,0,125.81V66.27a1.79,1.79,0,0,1,3.57,0V124H14.88V70.33a1.79,1.79,0,0,1,1.78-1.79h35.5A1.79,1.79,0,0,1,54,70.33V124H65.26V66.27a1.79,1.79,0,0,1,3.57,0v59.54A1.79,1.79,0,0,1,67,127.6Z"/><path d="M120.5,72.16a1.72,1.72,0,0,1-.87-.23C90.92,55.72,87.84,46.46,86.79,36V36A33.68,33.68,0,0,1,96,10.76a35.15,35.15,0,0,1,60.46,24.31,1.75,1.75,0,0,1-1.76,1.75H139.23a1.75,1.75,0,0,1-1.75-1.7c-.32-9.5-6.68-15.89-15.83-15.89a16.59,16.59,0,0,0-12.22,5,13.9,13.9,0,0,0-3.62,10.74c.36,7.11,6.14,11.18,15.63,17a1.76,1.76,0,0,1-1.85,3c-10.15-6.28-16.84-11-17.29-19.81a17.49,17.49,0,0,1,4.56-13.35,20.09,20.09,0,0,1,14.79-6.09c10.45,0,18.15,7.15,19.23,17.59h12A31.64,31.64,0,0,0,98.56,13.18a30.17,30.17,0,0,0-8.27,22.55c.95,9.38,3.87,17.78,31.07,33.14a1.76,1.76,0,0,1-.86,3.29Z"/><path d="M123.58,128.06c-19.53,0-35.41-16.15-35.41-36a1.76,1.76,0,0,1,1.76-1.76h15.75a1.74,1.74,0,0,1,1.75,1.7c.28,9.34,7.22,16.38,16.15,16.38A16.84,16.84,0,0,0,136,103.32a14.38,14.38,0,0,0,3.75-11.14c-.36-7.16-5.52-11-14-16.5a1.76,1.76,0,0,1,1.92-3c9.12,5.92,15.14,10.46,15.58,19.24a18.08,18.08,0,0,1-4.69,13.75,20.39,20.39,0,0,1-15,6.17c-10.32,0-18.46-7.66-19.55-18.08H91.73c.9,17.1,14.84,30.73,31.85,30.73A31.87,31.87,0,0,0,147,114.72a31.31,31.31,0,0,0,8.55-23.35c-.94-9.38-3.85-18.33-29.69-32.8a1.76,1.76,0,0,1,1.72-3.07C152.28,69.36,157.82,79,159,91.06v.08a34.95,34.95,0,0,1-35.44,36.92Z"/><path d="M198.28,127.79h-3.93a1.79,1.79,0,0,1-1.78-1.79V18.92H169.35a1.79,1.79,0,0,1-1.79-1.79V2.25A1.79,1.79,0,0,1,169.35.47h28.93a1.79,1.79,0,0,1,0,3.57H171.13V15.35h23.22a1.79,1.79,0,0,1,1.79,1.78V124.22h2.14a1.79,1.79,0,0,1,0,3.57Z"/><path d="M209.6,127.79h-3.79a1.79,1.79,0,1,1,0-3.57h2V17.13a1.78,1.78,0,0,1,1.78-1.78h23.22V4h-27a1.79,1.79,0,1,1,0-3.57h28.8a1.78,1.78,0,0,1,1.78,1.78V17.13a1.79,1.79,0,0,1-1.78,1.79H211.39V126a1.79,1.79,0,0,1-1.79,1.79Z"/><path d="M34.79,172.5a1.69,1.69,0,0,1-1.21-.52L.8,138.56a1.74,1.74,0,0,1-.35-1.88,1.7,1.7,0,0,1,1.6-1l29.54.29a1.71,1.71,0,0,1,1.7,1.73,1.74,1.74,0,0,1-1.74,1.71l-25.38-.25,28.66,29.23,29.23-28.67-25.26-.24a1.72,1.72,0,1,1,0-3.44l29.41.29a1.71,1.71,0,0,1,1.18,2.94L36,172a1.74,1.74,0,0,1-1.22.49Z"/></g></g></svg>
