<?xml version="1.0" standalone="no"?>
<!DOCTYPE svg PUBLIC "-//W3C//DTD SVG 20010904//EN"
 "http://www.w3.org/TR/2001/REC-SVG-20010904/DTD/svg10.dtd">
<svg version="1.0" xmlns="http://www.w3.org/2000/svg"
 width="700.000000pt" height="700.000000pt" viewBox="0 0 700.000000 700.000000"
 preserveAspectRatio="xMidYMid meet">
<metadata>
Created by potrace 1.11, written by Peter Selinger 2001-2013
</metadata>
<g transform="translate(0.000000,700.000000) scale(0.100000,-0.100000)"
fill="#000000" stroke="none">
<path d="M0 3500 l0 -3500 3500 0 3500 0 0 3500 0 3500 -3500 0 -3500 0 0
-3500z m2761 2591 l24 -19 3 -1046 2 -1046 635 0 635 0 0 1040 0 1041 25 24
24 25 319 0 c300 0 321 -1 343 -19 l24 -19 0 -1162 0 -1162 -24 -19 c-29 -24
-67 -19 -94 13 -16 19 -17 88 -17 1129 l0 1109 -225 0 -225 0 -2 -1045 c-3
-987 -4 -1045 -21 -1062 -17 -17 -63 -18 -753 -21 l-735 -2 -24 24 -25 25 0
1036 0 1035 -227 -2 -228 -3 -2 -1100 c-2 -605 -3 -1108 -3 -1117 0 -24 -39
-58 -67 -58 -13 0 -35 11 -48 25 l-25 24 0 1161 0 1161 25 24 24 25 319 0
c300 0 321 -1 343 -19z m2019 -2561 c20 -20 20 -33 20 -1234 l0 -1215 -26 -20
c-26 -20 -38 -21 -333 -21 -168 0 -316 3 -329 6 -54 15 -52 -24 -52 1134 l0
1070 -635 0 -635 0 0 -1084 0 -1085 -26 -20 c-26 -20 -38 -21 -339 -21 -301 0
-313 1 -339 21 l-26 20 0 1214 0 1214 22 15 c31 22 68 20 95 -6 l23 -21 0
-1154 0 -1153 225 0 225 0 0 1080 c0 1067 0 1080 20 1100 20 20 33 20 759 20
l740 0 20 -26 c21 -27 21 -29 21 -1100 l0 -1074 225 0 225 0 0 1160 c0 1147 0
1160 20 1180 11 11 33 20 50 20 17 0 39 -9 50 -20z"/>
</g>
</svg>
