<svg xmlns="http://www.w3.org/2000/svg" viewBox="0 0 512 512"><defs><style>.cls-1{fill:#fff;}</style></defs><title>twitter</title><g id="Layer_2" data-name="Layer 2"><g id="Layer_1-2" data-name="Layer 1"><rect x="95.74" y="111.1" width="321" height="303"/><path class="cls-1" d="M256,0C114.64,0,0,114.64,0,256S114.64,512,256,512,512,397.36,512,256,397.36,0,256,0ZM372.89,199.32q.17,3.78.16,7.59c0,77.65-59.1,167.18-167.18,167.19h0a166.35,166.35,0,0,1-90.07-26.4,120.24,120.24,0,0,0,14,.81,117.9,117.9,0,0,0,73-25.15,58.82,58.82,0,0,1-54.89-40.81,58.63,58.63,0,0,0,26.54-1,58.77,58.77,0,0,1-47.15-57.6c0-.26,0-.5,0-.75a58.34,58.34,0,0,0,26.62,7.35,58.82,58.82,0,0,1-18.2-78.44,166.87,166.87,0,0,0,121.12,61.39A58.79,58.79,0,0,1,357,159.9a117.75,117.75,0,0,0,37.31-14.26,58.9,58.9,0,0,1-25.84,32.5,117.16,117.16,0,0,0,33.75-9.25A119.61,119.61,0,0,1,372.89,199.32Z"/></g></g></svg>
